<svg width="181" height="298" viewBox="0 0 181 298" fill="none" xmlns="http://www.w3.org/2000/svg">
<path d="M133.088 213.688L127.969 198.11L93.4875 177.941C92.4201 177.33 91.2201 177.01 90 177.01C88.7799 177.01 87.5799 177.33 86.5125 177.941L52.0313 198.11L46.9125 213.688C46.365 215.304 46.3926 217.07 46.9904 218.668C47.5883 220.265 48.7173 221.591 50.175 222.406L52.0313 223.453V236.938C52.1121 238.133 52.478 239.29 53.0963 240.304C53.7146 241.318 54.5662 242.158 55.575 242.75L86.5125 260.827C87.5799 261.438 88.7799 261.758 90 261.758C91.2201 261.758 92.4201 261.438 93.4875 260.827L124.425 242.75C125.434 242.158 126.285 241.318 126.904 240.304C127.522 239.29 127.888 238.133 127.969 236.938V223.453L129.825 222.406C131.283 221.591 132.412 220.265 133.01 218.668C133.607 217.07 133.635 215.304 133.088 213.688ZM101.25 230.369L98.55 222.929L123.75 208.631L126.225 216.071L101.25 230.369ZM90 184.276L120.713 202.063L90 219.5L59.2875 202.063L90 184.276ZM53.55 216.071L56.25 208.631L81.45 222.929L78.75 230.369L53.55 216.071ZM59.175 227.405L83.0813 240.89L86.5688 230.195V252.689L59.0625 236.938L59.175 227.405ZM120.938 236.938L93.4875 252.689V230.195L97.0313 240.89L120.938 227.405V236.938Z" fill="black"/>
<path d="M117.601 30.7131C113.51 19.2483 102.503 11 89.5625 11C76.622 11 65.6151 19.2483 61.5237 30.7131C44.9625 35.7673 34 45.2043 34 56.2812C34 72.8408 58.4054 85.8125 89.5625 85.8125C120.72 85.8125 145.125 72.8408 145.125 56.2812C145.125 45.2043 134.163 35.7673 117.601 30.7131ZM89.5625 18.875C101.599 18.875 111.391 28.59 111.391 40.5312C111.391 47.3471 108.798 54.3125 89.5625 54.3125C70.3272 54.3125 67.7344 47.3471 67.7344 40.5312C67.7344 28.59 77.5265 18.875 89.5625 18.875ZM89.5625 77.9375C61.074 77.9375 41.9375 66.74 41.9375 56.2812C41.9375 50.1356 48.6121 43.7706 59.8477 39.5398C59.8362 39.8717 59.7969 40.1966 59.7969 40.5312C59.7969 54.9008 69.8116 62.1875 89.5625 62.1875C109.313 62.1875 119.328 54.9008 119.328 40.5312C119.328 40.1966 119.289 39.8717 119.277 39.5398C130.513 43.7706 137.188 50.1356 137.188 56.2812C137.188 66.7404 118.051 77.9375 89.5625 77.9375ZM57.8125 56.2812C57.8125 59.538 55.1419 62.1875 51.8594 62.1875C48.5768 62.1875 45.9062 59.538 45.9062 56.2812C45.9062 53.0245 48.5768 50.375 51.8594 50.375C55.1419 50.375 57.8125 53.0245 57.8125 56.2812ZM77.6562 68.0938C77.6562 71.3505 74.9857 74 71.7031 74C68.4206 74 65.75 71.3505 65.75 68.0938C65.75 64.837 68.4206 62.1875 71.7031 62.1875C74.9857 62.1875 77.6562 64.837 77.6562 68.0938ZM113.375 68.0938C113.375 71.3505 110.704 74 107.422 74C104.139 74 101.469 71.3505 101.469 68.0938C101.469 64.837 104.139 62.1875 107.422 62.1875C110.704 62.1875 113.375 64.837 113.375 68.0938ZM133.219 56.2812C133.219 59.538 130.548 62.1875 127.266 62.1875C123.983 62.1875 121.312 59.538 121.312 56.2812C121.312 53.0245 123.983 50.375 127.266 50.375C130.548 50.375 133.219 53.0245 133.219 56.2812ZM97.5 42.5C97.5 40.3253 99.2768 38.5625 101.469 38.5625C103.661 38.5625 105.438 40.3253 105.438 42.5C105.438 44.6743 103.661 46.4375 101.469 46.4375C99.2768 46.4375 97.5 44.6743 97.5 42.5ZM77.6562 42.5C77.6562 40.3257 79.4335 38.5625 81.625 38.5625H89.5625C91.754 38.5625 93.5312 40.3257 93.5312 42.5C93.5312 44.6743 91.754 46.4375 89.5625 46.4375H81.625C79.4335 46.4375 77.6562 44.6743 77.6562 42.5Z" fill="black"/>
<path d="M105.797 133.417C103.486 133.883 101.383 133.682 99.4865 132.813C97.5899 131.945 95.9594 130.449 94.5948 128.324C93.2303 126.199 92.1973 123.514 91.4958 120.268C90.7963 117.032 90.6322 114.177 91.0032 111.705C91.384 109.231 92.2622 107.223 93.6379 105.68C95.0232 104.136 96.8602 103.128 99.1488 102.657C101.437 102.185 103.531 102.388 105.43 103.266C107.326 104.134 108.956 105.626 110.318 107.741C111.688 109.844 112.723 112.514 113.422 115.751C114.126 119.006 114.293 121.875 113.924 124.357C113.553 126.829 112.681 128.841 111.307 130.393C109.932 131.936 108.095 132.943 105.797 133.417ZM104.955 129.524C106.981 129.107 108.35 127.795 109.063 125.587C109.786 123.377 109.744 120.406 108.938 116.674C108.402 114.196 107.687 112.156 106.791 110.554C105.903 108.94 104.877 107.791 103.712 107.107C102.554 106.412 101.308 106.201 99.9743 106.476C97.9584 106.892 96.5901 108.209 95.8694 110.428C95.1487 112.648 95.1857 115.62 95.9804 119.344C96.5181 121.832 97.2309 123.883 98.1188 125.497C99.0144 127.099 100.04 128.243 101.195 128.929C102.348 129.605 103.602 129.803 104.955 129.524Z" fill="black"/>
<path d="M67.818 104.497L68.99 101.524L86.1348 88.876L88.4923 89.7619L86.7671 94.1387L85.2712 93.5766L72.9986 102.647L72.9236 102.838L87.4397 108.292L86.2115 111.408L67.818 104.497ZM77.5629 113.621L79.7944 107.959L80.3527 106.612L87.1879 89.2717L90.6942 90.5893L81.0932 114.947L77.5629 113.621Z" fill="black"/>
<path d="M99.5809 166.925C97.1419 168.068 94.7462 168.417 92.3939 167.972C90.0416 167.527 87.8092 166.316 85.6967 164.337C83.5842 162.358 81.6835 159.669 79.9946 156.27C78.3107 152.881 77.329 149.77 77.0496 146.935C76.7805 144.096 77.1951 141.636 78.2933 139.557C79.4019 137.473 81.1628 135.859 83.5762 134.716C85.9896 133.573 88.375 133.229 90.7324 133.684C93.0847 134.128 95.3146 135.335 97.422 137.303C99.5346 139.257 101.433 141.928 103.117 145.317C104.811 148.726 105.8 151.853 106.084 154.698C106.364 157.533 105.957 159.995 104.864 162.084C103.765 164.163 102.005 165.777 99.5809 166.925ZM97.5556 162.849C99.6917 161.837 100.847 160.014 101.022 157.379C101.208 154.739 100.329 151.465 98.3876 147.557C97.0981 144.962 95.7311 142.901 94.2865 141.372C92.8472 139.829 91.3839 138.837 89.8968 138.398C88.4149 137.943 86.9704 138.049 85.5635 138.716C83.4377 139.723 82.2846 141.551 82.1044 144.201C81.9242 146.851 82.7973 150.127 84.7238 154.03C86.0183 156.635 87.3852 158.709 88.8246 160.253C90.2691 161.781 91.7298 162.768 93.2067 163.212C94.6785 163.646 96.1282 163.525 97.5556 162.849Z" fill="black"/>
<path d="M0.865057 296V277.091H8.10369C9.47017 277.091 10.6058 277.306 11.5107 277.737C12.4216 278.162 13.1018 278.744 13.5511 279.482C14.0066 280.221 14.2344 281.058 14.2344 281.994C14.2344 282.763 14.0866 283.422 13.7912 283.969C13.4957 284.511 13.0987 284.951 12.6001 285.29C12.1016 285.628 11.5445 285.871 10.929 286.019V286.204C11.5999 286.241 12.2431 286.447 12.8587 286.822C13.4804 287.192 13.9882 287.715 14.3821 288.392C14.776 289.069 14.973 289.888 14.973 290.848C14.973 291.827 14.736 292.707 14.2621 293.489C13.7881 294.264 13.0741 294.877 12.12 295.326C11.166 295.775 9.96567 296 8.51918 296H0.865057ZM4.29048 293.138H7.97443C9.2178 293.138 10.1134 292.901 10.6612 292.427C11.2152 291.947 11.4922 291.331 11.4922 290.58C11.4922 290.02 11.3537 289.515 11.0767 289.066C10.7997 288.611 10.4058 288.254 9.89489 287.995C9.384 287.73 8.77462 287.598 8.06676 287.598H4.29048V293.138ZM4.29048 285.133H7.67898C8.26989 285.133 8.80232 285.025 9.27628 284.81C9.75024 284.588 10.1226 284.277 10.3935 283.877C10.6705 283.471 10.8089 282.991 10.8089 282.437C10.8089 281.704 10.5504 281.101 10.0334 280.627C9.52249 280.153 8.76231 279.916 7.75284 279.916H4.29048V285.133ZM20.3812 296H16.725L23.3819 277.091H27.6106L34.2768 296H30.6206L25.5701 280.969H25.4224L20.3812 296ZM20.5012 288.586H30.4728V291.337H20.5012V288.586ZM43.1751 296H36.7674V277.091H43.3043C45.1817 277.091 46.7944 277.469 48.1424 278.227C49.4966 278.978 50.5368 280.058 51.2631 281.467C51.9895 282.877 52.3526 284.563 52.3526 286.527C52.3526 288.497 51.9864 290.189 51.2539 291.605C50.5276 293.021 49.4781 294.107 48.1055 294.864C46.739 295.621 45.0955 296 43.1751 296ZM40.1928 293.036H43.0089C44.3261 293.036 45.4248 292.796 46.305 292.316C47.1853 291.83 47.8469 291.107 48.2901 290.146C48.7333 289.18 48.9549 287.973 48.9549 286.527C48.9549 285.08 48.7333 283.88 48.2901 282.926C47.8469 281.966 47.1914 281.249 46.3235 280.775C45.4618 280.295 44.3907 280.055 43.1104 280.055H40.1928V293.036ZM62.0565 296V277.091H69.1474C70.6 277.091 71.8188 277.343 72.8036 277.848C73.7946 278.353 74.5425 279.061 75.0472 279.972C75.5581 280.876 75.8136 281.932 75.8136 283.138C75.8136 284.351 75.555 285.404 75.038 286.296C74.5271 287.183 73.7731 287.869 72.7759 288.355C71.7788 288.835 70.5539 289.075 69.1012 289.075H64.0508V286.232H68.6396C69.489 286.232 70.1845 286.115 70.7262 285.881C71.2679 285.641 71.668 285.293 71.9265 284.837C72.1912 284.376 72.3235 283.809 72.3235 283.138C72.3235 282.468 72.1912 281.895 71.9265 281.421C71.6618 280.941 71.2586 280.578 70.717 280.332C70.1753 280.079 69.4767 279.953 68.6211 279.953H65.4819V296H62.0565ZM71.8249 287.432L76.506 296H72.6836L68.0856 287.432H71.8249ZM78.9666 296V277.091H91.2649V279.962H82.392V285.096H90.6278V287.967H82.392V293.129H91.3388V296H78.9666ZM101.804 289.648H104.907L106.744 292.03L108.055 293.581L111.203 297.625H107.88L105.738 294.911L104.824 293.618L101.804 289.648ZM111.656 286.545C111.656 288.583 111.274 290.328 110.511 291.781C109.754 293.227 108.72 294.335 107.409 295.104C106.104 295.874 104.623 296.259 102.968 296.259C101.312 296.259 99.8285 295.874 98.5174 295.104C97.2125 294.329 96.1784 293.218 95.4151 291.771C94.658 290.319 94.2795 288.577 94.2795 286.545C94.2795 284.508 94.658 282.766 95.4151 281.32C96.1784 279.867 97.2125 278.756 98.5174 277.987C99.8285 277.217 101.312 276.832 102.968 276.832C104.623 276.832 106.104 277.217 107.409 277.987C108.72 278.756 109.754 279.867 110.511 281.32C111.274 282.766 111.656 284.508 111.656 286.545ZM108.212 286.545C108.212 285.111 107.987 283.902 107.538 282.917C107.095 281.926 106.479 281.178 105.691 280.673C104.904 280.162 103.996 279.907 102.968 279.907C101.94 279.907 101.032 280.162 100.244 280.673C99.4561 281.178 98.8375 281.926 98.3881 282.917C97.945 283.902 97.7234 285.111 97.7234 286.545C97.7234 287.98 97.945 289.192 98.3881 290.183C98.8375 291.168 99.4561 291.916 100.244 292.427C101.032 292.932 101.94 293.184 102.968 293.184C103.996 293.184 104.904 292.932 105.691 292.427C106.479 291.916 107.095 291.168 107.538 290.183C107.987 289.192 108.212 287.98 108.212 286.545ZM126.839 277.091H130.265V289.445C130.265 290.799 129.945 291.99 129.305 293.018C128.671 294.046 127.778 294.849 126.627 295.428C125.476 296 124.131 296.286 122.592 296.286C121.047 296.286 119.699 296 118.548 295.428C117.397 294.849 116.505 294.046 115.871 293.018C115.237 291.99 114.92 290.799 114.92 289.445V277.091H118.345V289.158C118.345 289.946 118.518 290.648 118.862 291.263C119.213 291.879 119.705 292.362 120.339 292.713C120.973 293.058 121.724 293.23 122.592 293.23C123.46 293.23 124.211 293.058 124.845 292.713C125.485 292.362 125.978 291.879 126.322 291.263C126.667 290.648 126.839 289.946 126.839 289.158V277.091ZM133.988 296V277.091H146.286V279.962H137.414V285.096H145.649V287.967H137.414V293.129H146.36V296H133.988ZM160.057 282.289C159.971 281.483 159.608 280.855 158.968 280.406C158.334 279.956 157.509 279.732 156.493 279.732C155.779 279.732 155.167 279.839 154.656 280.055C154.145 280.27 153.754 280.562 153.483 280.932C153.213 281.301 153.074 281.723 153.068 282.197C153.068 282.591 153.157 282.932 153.336 283.222C153.52 283.511 153.77 283.757 154.084 283.96C154.398 284.157 154.745 284.323 155.127 284.459C155.509 284.594 155.893 284.708 156.281 284.8L158.054 285.244C158.768 285.41 159.454 285.634 160.113 285.918C160.778 286.201 161.372 286.558 161.895 286.989C162.424 287.42 162.843 287.94 163.15 288.549C163.458 289.158 163.612 289.872 163.612 290.691C163.612 291.799 163.329 292.775 162.763 293.618C162.196 294.455 161.378 295.111 160.307 295.585C159.242 296.052 157.952 296.286 156.438 296.286C154.967 296.286 153.69 296.058 152.606 295.603C151.529 295.147 150.686 294.483 150.077 293.609C149.473 292.735 149.147 291.67 149.098 290.414H152.468C152.517 291.073 152.72 291.621 153.077 292.058C153.434 292.495 153.899 292.821 154.471 293.036C155.05 293.252 155.696 293.359 156.41 293.359C157.155 293.359 157.808 293.249 158.368 293.027C158.934 292.799 159.377 292.485 159.697 292.085C160.017 291.679 160.18 291.205 160.187 290.663C160.18 290.171 160.036 289.765 159.753 289.445C159.47 289.118 159.073 288.848 158.562 288.632C158.057 288.411 157.466 288.214 156.789 288.041L154.638 287.487C153.08 287.087 151.849 286.481 150.944 285.668C150.046 284.85 149.596 283.763 149.596 282.409C149.596 281.295 149.898 280.319 150.501 279.482C151.111 278.645 151.939 277.996 152.985 277.534C154.031 277.066 155.216 276.832 156.54 276.832C157.881 276.832 159.057 277.066 160.067 277.534C161.082 277.996 161.879 278.639 162.458 279.464C163.037 280.282 163.335 281.224 163.354 282.289H160.057ZM165.835 279.962V277.091H180.922V279.962H175.077V296H171.679V279.962H165.835Z" fill="black"/>
</svg>
